{"title":"Rich Homie Quan - Type Of Way [Music Video] 1080p [Sbyky]","uid":9312794,"size":95622135,"categoryP":"video","categoryS":"music_videos","magnet":"?xt=urn:btih:419d13e933877a510e6e838e5836edf545c86245&amp;dn=Rich+Homie+Quan+-+Type+Of+Way+%5BMusic+Video%5D+1080p+%5BSbyky%5D&amp;tr=udp%3A%2F%2Ftracker.openbittorrent.com%3A80&amp;tr=udp%3A%2F%2Fopen.demonii.com%3A1337&amp;tr=udp%3A%2F%2Ftracker.coppersurfer.tk%3A6969&amp;tr=udp%3A%2F%2Fexodus.desync.com%3A6969","seeders":16,"leechers":8,"uploader":"Sbyky","files":1,"time":1386428147,"description":"\n\nGeneral\nComplete name                            : Rich Homie Quan - Type Of Way [Music Video] 1080p [Sbyky].MP4\nFormat                                   : MPEG-4\nFormat profile                           : Base Media\nCodec ID                                 : isom\nFile size                                : 91.2 MiB\nDuration                                 : 4mn 33s\nOverall bit rate mode                    : Variable\nOverall bit rate                         : 2 797 Kbps\nEncoded date                             : UTC 2013-11-12 05:46:28\nTagged date                              : UTC 2013-11-12 05:46:28\n\nVideo\nID                                       : 1\nFormat                                   : AVC\nFormat/Info                              : Advanced Video Codec\nFormat profile                           : &lt;a class=&quot;__cf_email__&quot; href=&quot;/cdn-cgi/l/email-protection&quot; data-cfemail=&quot;bbf3d2dcd3fbf78f958b&quot;&gt;[email&amp;#160;protected]&lt;/a&gt;&lt;script data-cfhash='f9e31' type=&quot;text/javascript&quot;&gt;\n/* &lt;![CDATA[ */!function(){try{var t=&quot;currentScript&quot;in document?document.currentScript:function(){for(var t=document.getElementsByTagName(&quot;script&quot;),e=t.length;e--;)if(t[e].getAttribute(&quot;data-cfhash&quot;))return t[e]}();if(t&amp;&amp;t.previousSibling){var e,r,n,i,c=t.previousSibling,a=c.getAttribute(&quot;data-cfemail&quot;);if(a){for(e=&quot;&quot;,r=parseInt(a.substr(0,2),16),n=2;a.length-n;n+=2)i=parseInt(a.substr(n,2),16)^r,e+=String.fromCharCode(i);e=document.createTextNode(e),c.parentNode.replaceChild(e,c)}t.parentNode.removeChild(t);}}catch(u){}}()/* ]]&gt; */&lt;/script&gt;\nFormat settings, CABAC                   : Yes\nFormat settings, ReFrames                : 3 frames\nCodec ID                                 : avc1\nCodec ID/Info                            : Advanced Video Coding\nDuration                                 : 4mn 33s\nDuration_LastFrame                       : -42ms\nBit rate                                 : 2 540 Kbps\nWidth                                    : 1 920 pixels\nHeight                                   : 1 080 pixels\nDisplay aspect ratio                     : 16:9\nFrame rate mode                          : Constant\nFrame rate                               : 23.976 fps\nColor space                              : YUV\nChroma subsampling                       : 4:2:0\nBit depth                                : 8 bits\nScan type                                : Progressive\nBits/(Pixel*Frame)                       : 0.051\nStream size                              : 82.8 MiB (91%)\nEncoded date                             : UTC 2013-11-12 05:46:28\nTagged date                              : UTC 2013-11-12 05:46:28\n\nAudio\nID                                       : 2\nFormat                                   : AAC\nFormat/Info                              : Advanced Audio Codec\nFormat profile                           : LC\nCodec ID                                 : 40\nDuration                                 : 4mn 33s\nBit rate mode                            : Variable\nBit rate                                 : 254 Kbps\nChannel(s)                               : 2 channels\nChannel positions                        : Front: L R\nSampling rate                            : 44.1 KHz\nCompression mode                         : Lossy\nDelay relative to video                  : 42ms\nStream size                              : 8.27 MiB (9%)\nEncoded date                             : UTC 2013-11-12 05:45:46\nTagged date                              : UTC 2013-11-12 05:45:46\n\nShared By Sbyky\n","torrent":{"xt":"urn:btih:419d13e933877a510e6e838e5836edf545c86245","amp;dn":"Rich+Homie+Quan+-+Type+Of+Way+%5BMusic+Video%5D+1080p+%5BSbyky%5D","amp;tr":["udp%3A%2F%2Ftracker.openbittorrent.com%3A80","udp%3A%2F%2Fopen.demonii.com%3A1337","udp%3A%2F%2Ftracker.coppersurfer.tk%3A6969","udp%3A%2F%2Fexodus.desync.com%3A6969"],"infoHash":"419d13e933877a510e6e838e5836edf545c86245","infoHashBuffer":{"type":"Buffer","data":[65,157,19,233,51,135,122,81,14,110,131,142,88,54,237,245,69,200,98,69]},"announce":[],"urlList":[]}}